<svg width="540" height="468" viewBox="0 0 540 468" fill="none" xmlns="http://www.w3.org/2000/svg">
<path fill-rule="evenodd" clip-rule="evenodd" d="M257.938 401.29H257.419H257.362L257.394 401.348L257.938 401.29Z" fill="white"/>
<path fill-rule="evenodd" clip-rule="evenodd" d="M257.938 401.29H257.419H257.362L257.394 401.348L257.938 401.29Z" fill="white"/>
<path fill-rule="evenodd" clip-rule="evenodd" d="M257.938 401.29H257.419L257.394 401.348L257.938 401.29Z" fill="white"/>
<path fill-rule="evenodd" clip-rule="evenodd" d="M257.938 401.29H257.419H257.362L257.394 401.348L257.938 401.29Z" fill="white"/>
<path d="M257.938 401.29L257.394 401.348L241.588 438.34L228.923 467.979H229.167H294.464H299.114H401.197L402.991 467.969C478.823 467.006 540 405.089 540 328.85C540 267.981 501.003 216.242 446.685 197.365L495.191 164.652L495.097 89.2216L417.183 87.2858L360.455 170.021C349.461 164.175 337.638 159.667 325.205 156.712L345.071 53.2716L306.985 18.1906L288.597 0L234.751 53.2716L254.673 157.009C241.465 160.267 228.957 165.282 217.417 171.791L159.699 88.2357H81.598V164.654L165.292 221.099C158.21 232.189 152.584 244.284 148.681 257.12L53.7139 239.181L0 295.19L53.7139 348.593L145.821 331.193C148.776 344.574 153.57 357.272 159.927 369.015L84.1618 420.112L84.1315 443.19L84.0956 443.221L84.1618 467.969L110.133 468L110.152 467.98L161.608 468L276.609 256.801H313.56H401.197C413.251 256.801 424.611 259.775 434.589 265.031C457.471 277.085 473.077 301.141 473.077 328.85C473.077 368.642 446.422 401.348 406.723 401.348H398.106H328.021L258.458 401.29H257.938Z" fill="white"/>
</svg>
